<?xml version="1.0" encoding="UTF-8" standalone="no"?>
<!-- Created with Inkscape (http://www.inkscape.org/) -->

<svg
   xmlns:dc="http://purl.org/dc/elements/1.1/"
   xmlns:cc="http://creativecommons.org/ns#"
   xmlns:rdf="http://www.w3.org/1999/02/22-rdf-syntax-ns#"
   xmlns:svg="http://www.w3.org/2000/svg"
   xmlns="http://www.w3.org/2000/svg"
   xmlns:sodipodi="http://sodipodi.sourceforge.net/DTD/sodipodi-0.dtd"
   xmlns:inkscape="http://www.inkscape.org/namespaces/inkscape"
   width="29.999996"
   height="30.000299"
   id="svg2942"
   version="1.1"
   inkscape:version="0.47 r22583"
   sodipodi:docname="tb-search.svg">
  <defs
     id="defs2944">
    <inkscape:perspective
       sodipodi:type="inkscape:persp3d"
       inkscape:vp_x="0 : 526.18109 : 1"
       inkscape:vp_y="0 : 1000 : 0"
       inkscape:vp_z="744.09448 : 526.18109 : 1"
       inkscape:persp3d-origin="372.04724 : 350.78739 : 1"
       id="perspective2950" />
    <inkscape:perspective
       id="perspective2937"
       inkscape:persp3d-origin="0.5 : 0.33333333 : 1"
       inkscape:vp_z="1 : 0.5 : 1"
       inkscape:vp_y="0 : 1000 : 0"
       inkscape:vp_x="0 : 0.5 : 1"
       sodipodi:type="inkscape:persp3d" />
  </defs>
  <sodipodi:namedview
     id="base"
     pagecolor="#ffffff"
     bordercolor="#666666"
     borderopacity="1.0"
     inkscape:pageopacity="0.0"
     inkscape:pageshadow="2"
     inkscape:zoom="15.839192"
     inkscape:cx="1.5439126"
     inkscape:cy="13.080583"
     inkscape:document-units="px"
     inkscape:current-layer="layer1"
     showgrid="false"
     inkscape:window-width="1598"
     inkscape:window-height="884"
     inkscape:window-x="0"
     inkscape:window-y="14"
     inkscape:window-maximized="0" />
  <metadata
     id="metadata2947">
    <rdf:RDF>
      <cc:Work
         rdf:about="">
        <dc:format>image/svg+xml</dc:format>
        <dc:type
           rdf:resource="http://purl.org/dc/dcmitype/StillImage" />
        <dc:title />
      </cc:Work>
    </rdf:RDF>
  </metadata>
  <g
     inkscape:label="Layer 1"
     inkscape:groupmode="layer"
     id="layer1"
     transform="translate(-5,-1017.3619)">
    <path
       d="M 15.479556,1017.3628 C 9.6876519,1017.3628 5,1022.0149 5,1027.7494 c 0,5.7346 4.6876519,10.3868 10.479556,10.3868 2.431206,0 4.668551,-0.8293 6.447155,-2.204 l 3.305632,3.3059 -0.04689,0.046 c -0.363554,0.3601 -0.363554,0.9296 0,1.2896 l 6.587819,6.518 c 0.363677,0.36 0.94926,0.36 1.312877,0 l 1.641097,-1.6177 c 0.363676,-0.36 0.363676,-0.9531 0,-1.3131 l -6.564376,-6.518 c -0.363554,-0.36 -0.972766,-0.36 -1.336319,0 l -0.04689,0.047 -3.282188,-3.259 c 1.535233,-1.8059 2.485085,-4.137 2.485085,-6.6822 0,-5.7345 -4.711158,-10.3866 -10.503001,-10.3866 z m 0,2.1805 c 4.572577,0 8.275802,3.6789 8.275802,8.2061 0,4.5274 -3.703225,8.1828 -8.275802,8.1828 -4.572576,0 -8.2758013,-3.6554 -8.2758013,-8.1828 0,-4.5272 3.7032253,-8.2061 8.2758013,-8.2061 z"
       id="path4146"
       style="fill:#a5a5a5;fill-opacity:1;stroke:none" />
  </g>
</svg>
