<?xml version="1.0" encoding="UTF-8" standalone="no"?>
<!-- Created with Inkscape (http://www.inkscape.org/) -->

<svg
   xmlns:dc="http://purl.org/dc/elements/1.1/"
   xmlns:cc="http://creativecommons.org/ns#"
   xmlns:rdf="http://www.w3.org/1999/02/22-rdf-syntax-ns#"
   xmlns:svg="http://www.w3.org/2000/svg"
   xmlns="http://www.w3.org/2000/svg"
   xmlns:xlink="http://www.w3.org/1999/xlink"
   xmlns:sodipodi="http://sodipodi.sourceforge.net/DTD/sodipodi-0.dtd"
   xmlns:inkscape="http://www.inkscape.org/namespaces/inkscape"
   width="30"
   height="30.000004"
   id="svg53383"
   sodipodi:version="0.32"
   inkscape:version="0.47 r22583"
   sodipodi:docname="tb-settings.svg"
   version="1.1">
  <defs
     id="defs3">
    <inkscape:perspective
       sodipodi:type="inkscape:persp3d"
       inkscape:vp_x="0 : 24 : 1"
       inkscape:vp_y="0 : 1000 : 0"
       inkscape:vp_z="48 : 24 : 1"
       inkscape:persp3d-origin="24 : 16 : 1"
       id="perspective31" />
    <linearGradient
       id="linearGradient3264">
      <stop
         style="stop-color:#c9c9c9;stop-opacity:1;"
         offset="0"
         id="stop3266" />
      <stop
         id="stop3276"
         offset="0.25"
         style="stop-color:#f8f8f8;stop-opacity:1;" />
      <stop
         id="stop3272"
         offset="0.5"
         style="stop-color:#e2e2e2;stop-opacity:1;" />
      <stop
         style="stop-color:#b0b0b0;stop-opacity:1;"
         offset="0.75"
         id="stop3274" />
      <stop
         style="stop-color:#c9c9c9;stop-opacity:1;"
         offset="1"
         id="stop3268" />
    </linearGradient>
    <linearGradient
       inkscape:collect="always"
       xlink:href="#linearGradient3264"
       id="linearGradient3281"
       gradientUnits="userSpaceOnUse"
       x1="14.462892"
       y1="12.284524"
       x2="34.534348"
       y2="39.684914"
       gradientTransform="matrix(1.241935,0,0,1.241935,-5.027508,-7.208988)" />
    <linearGradient
       id="linearGradient2300">
      <stop
         id="stop2302"
         offset="0.0000000"
         style="stop-color:#000000;stop-opacity:0.32673267;" />
      <stop
         id="stop2304"
         offset="1"
         style="stop-color:#000000;stop-opacity:0;" />
    </linearGradient>
    <linearGradient
       id="aigrd1"
       gradientUnits="userSpaceOnUse"
       x1="99.777298"
       y1="15.4238"
       x2="153.0005"
       y2="248.6311">
      <stop
         offset="0"
         style="stop-color:#184375"
         id="stop53300" />
      <stop
         offset="1"
         style="stop-color:#C8BDDC"
         id="stop53302" />
    </linearGradient>
    <linearGradient
       inkscape:collect="always"
       xlink:href="#aigrd1"
       id="linearGradient53551"
       gradientUnits="userSpaceOnUse"
       x1="99.777298"
       y1="15.4238"
       x2="153.0005"
       y2="248.6311"
       gradientTransform="matrix(0.200685,0,0,0.200685,-0.585758,-1.050787)" />
    <radialGradient
       gradientUnits="userSpaceOnUse"
       r="11.68987"
       fy="72.568001"
       fx="14.287618"
       cy="68.872971"
       cx="14.287618"
       gradientTransform="matrix(1.399258,-2.234445e-7,8.196178e-8,0.513264,4.365074,4.839285)"
       id="radialGradient2308"
       xlink:href="#linearGradient2300"
       inkscape:collect="always" />
    <linearGradient
       inkscape:collect="always"
       xlink:href="#linearGradient3264"
       id="linearGradient3760"
       gradientUnits="userSpaceOnUse"
       gradientTransform="matrix(1.241935,0,0,1.241935,-5.027508,-7.208988)"
       x1="14.462892"
       y1="12.284524"
       x2="34.534348"
       y2="39.684914" />
    <inkscape:perspective
       id="perspective2841"
       inkscape:persp3d-origin="0.5 : 0.33333333 : 1"
       inkscape:vp_z="1 : 0.5 : 1"
       inkscape:vp_y="0 : 1000 : 0"
       inkscape:vp_x="0 : 0.5 : 1"
       sodipodi:type="inkscape:persp3d" />
  </defs>
  <sodipodi:namedview
     inkscape:showpageshadow="false"
     id="base"
     pagecolor="#ffffff"
     bordercolor="#666666"
     borderopacity="0.11764706"
     inkscape:pageopacity="0.0"
     inkscape:pageshadow="2"
     inkscape:zoom="22.627416"
     inkscape:cx="17.885433"
     inkscape:cy="17.214887"
     inkscape:current-layer="layer1"
     showgrid="false"
     inkscape:grid-bbox="true"
     inkscape:document-units="px"
     inkscape:window-width="1598"
     inkscape:window-height="884"
     inkscape:window-x="0"
     inkscape:window-y="14"
     inkscape:window-maximized="0" />
  <metadata
     id="metadata4">
    <rdf:RDF>
      <cc:Work
         rdf:about="">
        <dc:format>image/svg+xml</dc:format>
        <dc:type
           rdf:resource="http://purl.org/dc/dcmitype/StillImage" />
        <dc:title>System Applications</dc:title>
        <dc:creator>
          <cc:Agent>
            <dc:title>Jakub Steiner</dc:title>
          </cc:Agent>
        </dc:creator>
        <dc:source>http://jimmac.musichall.cz/</dc:source>
        <dc:subject>
          <rdf:Bag>
            <rdf:li>system</rdf:li>
            <rdf:li>applications</rdf:li>
            <rdf:li>group</rdf:li>
            <rdf:li>category</rdf:li>
            <rdf:li>admin</rdf:li>
            <rdf:li>root</rdf:li>
          </rdf:Bag>
        </dc:subject>
        <cc:license
           rdf:resource="http://creativecommons.org/licenses/by/2.0/" />
      </cc:Work>
      <cc:License
         rdf:about="http://creativecommons.org/licenses/by/2.0/">
        <cc:permits
           rdf:resource="http://web.resource.org/cc/Reproduction" />
        <cc:permits
           rdf:resource="http://web.resource.org/cc/Distribution" />
        <cc:requires
           rdf:resource="http://web.resource.org/cc/Notice" />
        <cc:requires
           rdf:resource="http://web.resource.org/cc/Attribution" />
        <cc:permits
           rdf:resource="http://web.resource.org/cc/DerivativeWorks" />
        <cc:requires
           rdf:resource="http://web.resource.org/cc/ShareAlike" />
      </cc:License>
    </rdf:RDF>
  </metadata>
  <g
     inkscape:label="shadow"
     id="layer2"
     inkscape:groupmode="layer"
     transform="translate(0,-17.999995)" />
  <g
     id="layer1"
     inkscape:label="Layer 1"
     inkscape:groupmode="layer"
     transform="translate(0,-17.999995)">
    <path
       style="color:#000000;fill:#a5a5a5;fill-opacity:1;fill-rule:nonzero;stroke:none;stroke-width:1;marker:none;visibility:visible;display:inline;overflow:visible"
       d="M 14.21875 0 C 13.902304 0.02165 13.592071 0.058186 13.28125 0.09375 L 13.25 0.09375 L 11.875 7.53125 L 5.8125 3.15625 C 4.9107738 3.85627 4.0648049 4.678268 3.34375 5.5625 L 7.75 11.96875 L 0.09375 13.1875 C 0.01994637 13.790264 0 14.408649 0 15.03125 C 0 15.54065 0.01282698 16.034861 0.0625 16.53125 L 8 17.9375 L 3.28125 24.40625 C 3.9688376 25.259796 4.7692886 26.033725 5.625 26.71875 L 12.375 22.09375 L 13.625 29.96875 C 14.077928 30.009977 14.536384 30 15 30 C 15.654516 29.999999 16.273777 29.98767 16.90625 29.90625 L 18.40625 21.875 L 24.71875 26.4375 C 25.567267 25.715653 26.32982 24.8916 27 24 L 22.46875 17.46875 L 29.96875 16.28125 C 30.003971 15.862236 30 15.459317 30 15.03125 C 30 14.287365 29.91725 13.55871 29.8125 12.84375 L 22.3125 11.46875 L 26.625 5.53125 C 25.880815 4.621218 25.028983 3.776204 24.09375 3.0625 L 17.90625 7.3125 L 16.75 0.09375 C 16.169853 0.025511 15.598388 0 15 0 C 14.838273 0 14.660498 -0.0051 14.5 0 C 14.42176 0.0025 14.35929 -0.0046 14.28125 0 C 14.26012 0.0012 14.23985 -0.0014 14.21875 0 z M 15 10 C 17.761424 10 20 12.238576 20 15 C 20 17.761424 17.761424 20 15 20 C 12.238576 20 10 17.761424 10 15 C 10 12.238576 12.238576 10 15 10 z "
       transform="translate(0,17.999995)"
       id="path3243" />
    <path
       style="fill:#a5a5a5;fill-opacity:1;fill-rule:nonzero;stroke:none"
       d="m 15,21.999999 c -6.0751326,0 -11,4.924867 -11,11 0,6.075133 4.9248674,11 11,11 6.075133,0 11,-4.924867 11,-11 0,-6.075133 -4.924867,-11 -11,-11 z m 0,4.888888 c 3.375074,0 6.111112,2.736038 6.111112,6.111112 0,3.375074 -2.736038,6.111112 -6.111112,6.111112 -3.375074,0 -6.1111112,-2.736038 -6.1111112,-6.111112 0,-3.375074 2.7360372,-6.111112 6.1111112,-6.111112 z"
       id="path2848" />
  </g>
</svg>
